<svg width="14" height="14" viewBox="0 0 14 14" fill="none" xmlns="http://www.w3.org/2000/svg">
<g id="Iconly/Light-Outline/Graph">
<g id="Graph">
<path id="Fill 1" fill-rule="evenodd" clip-rule="evenodd" d="M5.23983 3.67704C5.22116 3.67704 5.20249 3.67938 5.18383 3.68404C3.45133 4.11046 2.04199 5.98763 2.04199 7.86829C2.04199 10.2343 3.96699 12.1593 6.33357 12.1593C8.46682 12.1593 10.2495 10.6397 10.5727 8.54554C10.575 8.52804 10.5832 8.47729 10.5353 8.42071C10.4898 8.36763 10.4175 8.33613 10.3417 8.33613C9.51857 8.33613 8.89032 8.35479 8.39974 8.36879C7.21208 8.40438 6.72091 8.41779 6.23558 8.05788C5.50408 7.51596 5.44224 6.58496 5.44224 3.84679C5.44224 3.79779 5.42124 3.75696 5.37924 3.72429C5.34016 3.69338 5.29058 3.67704 5.23983 3.67704ZM6.33358 13.0343C3.48458 13.0343 1.16699 10.7167 1.16699 7.86829C1.16699 5.60963 2.87499 3.35096 4.97441 2.83413C5.30224 2.75421 5.65458 2.82888 5.91941 3.03538C6.17199 3.23371 6.31724 3.52946 6.31724 3.84679C6.31724 6.40471 6.40358 7.09304 6.75649 7.35496C6.98808 7.52588 7.30541 7.52413 8.37466 7.49438C8.87166 7.47979 9.50807 7.46113 10.3417 7.46113C10.6742 7.46113 10.9874 7.60346 11.1997 7.85138C11.3969 8.08179 11.4832 8.38279 11.4377 8.67913C11.0481 11.202 8.90141 13.0343 6.33358 13.0343Z" fill="#54BAB9"/>
<g id="Group 5">
<mask id="mask0_6_83" style="mask-type:alpha" maskUnits="userSpaceOnUse" x="7" y="0" width="7" height="7">
<path id="Clip 4" fill-rule="evenodd" clip-rule="evenodd" d="M7.27686 0.583618H13.3546V6.58571H7.27686V0.583618Z" fill="white"/>
</mask>
<g mask="url(#mask0_6_83)">
<path id="Fill 3" fill-rule="evenodd" clip-rule="evenodd" d="M8.17329 1.45939C8.10913 2.92881 8.20421 4.82697 8.24854 5.57889C8.25088 5.62381 8.28354 5.65647 8.32788 5.65881C8.92754 5.69322 10.9937 5.78889 12.4795 5.57014C12.483 4.75114 11.9224 3.64047 11.0783 2.79697C10.2126 1.93247 9.18829 1.45939 8.18613 1.45939H8.17329ZM10.1006 6.58572C9.33646 6.58572 8.66388 6.55481 8.27713 6.53264C7.79063 6.50406 7.40329 6.11614 7.37529 5.62964C7.32979 4.85847 7.23121 2.89906 7.30121 1.38356C7.32046 0.94314 7.67629 0.592557 8.11146 0.584973C9.35804 0.548807 10.6443 1.12747 11.6966 2.17806C12.7221 3.20297 13.3731 4.54989 13.3545 5.60981C13.3475 6.02339 13.047 6.36872 12.641 6.42997C11.8489 6.54956 10.9214 6.58572 10.1006 6.58572Z" fill="#54BAB9"/>
</g>
</g>
</g>
</g>
</svg>
