<svg width="25" height="25" viewBox="0 0 25 25" fill="none" xmlns="http://www.w3.org/2000/svg">
<path d="M21.8124 18.8125L20.0624 8.65625C19.9429 7.79163 19.5212 6.99723 18.872 6.41381C18.2228 5.83038 17.388 5.49559 16.5156 5.46875H16.4062C16.4062 4.43275 15.9946 3.43918 15.2621 2.70661C14.5295 1.97405 13.5359 1.5625 12.4999 1.5625C11.4639 1.5625 10.4704 1.97405 9.73779 2.70661C9.00523 3.43918 8.59368 4.43275 8.59368 5.46875H8.4843C7.61187 5.49559 6.77711 5.83038 6.1279 6.41381C5.47869 6.99723 5.05696 7.79163 4.93743 8.65625L3.18743 18.8125C3.07994 19.4017 3.10331 20.0073 3.25586 20.5865C3.40842 21.1657 3.68644 21.7043 4.07024 22.1641C4.39362 22.5588 4.79994 22.8776 5.26036 23.0977C5.72078 23.3177 6.224 23.4338 6.7343 23.4375H18.2656C18.7759 23.4338 19.2791 23.3177 19.7395 23.0977C20.1999 22.8776 20.6062 22.5588 20.9296 22.1641C21.3134 21.7043 21.5914 21.1657 21.744 20.5865C21.8966 20.0073 21.9199 19.4017 21.8124 18.8125ZM12.4999 3.125C13.1215 3.125 13.7177 3.37193 14.1572 3.81147C14.5967 4.25101 14.8437 4.84715 14.8437 5.46875H10.1562C10.1562 4.84715 10.4031 4.25101 10.8426 3.81147C11.2822 3.37193 11.8783 3.125 12.4999 3.125ZM19.7343 21.1562C19.5578 21.3771 19.3345 21.5561 19.0805 21.6804C18.8266 21.8046 18.5483 21.8711 18.2656 21.875H6.7343C6.4516 21.8711 6.17327 21.8046 5.91931 21.6804C5.66536 21.5561 5.44209 21.3771 5.26555 21.1562C5.02748 20.8714 4.85562 20.5372 4.7624 20.1778C4.66918 19.8184 4.65691 19.4428 4.72649 19.0781L6.47649 8.92188C6.53465 8.42064 6.768 7.95606 7.13537 7.61014C7.50273 7.26422 7.98048 7.05919 8.4843 7.03125H16.5156C17.0194 7.05919 17.4971 7.26422 17.8645 7.61014C18.2319 7.95606 18.4652 8.42064 18.5234 8.92188L20.2734 19.0781C20.3429 19.4428 20.3307 19.8184 20.2375 20.1778C20.1442 20.5372 19.9724 20.8714 19.7343 21.1562Z" fill="#1B1B1B"/>
</svg>
