<svg width="18" height="18" viewBox="0 0 18 18" fill="none" xmlns="http://www.w3.org/2000/svg">
<path d="M2.0625 2.4375L3.6225 2.7075L4.34475 11.3122C4.4025 12.015 4.98975 12.5542 5.69475 12.552H13.8765C14.5492 12.5535 15.12 12.0585 15.2153 11.3925L15.927 6.474C16.0065 5.92425 15.6247 5.41425 15.0757 5.33475C15.0277 5.328 3.873 5.32425 3.873 5.32425" stroke="#8C8C8C" stroke-linecap="round" stroke-linejoin="round"/>
<path d="M10.5938 8.09619H12.6735" stroke="#8C8C8C" stroke-linecap="round" stroke-linejoin="round"/>
<path fill-rule="evenodd" clip-rule="evenodd" d="M5.36601 15.1519C5.59176 15.1519 5.77401 15.3349 5.77401 15.5599C5.77401 15.7856 5.59176 15.9686 5.36601 15.9686C5.14026 15.9686 4.95801 15.7856 4.95801 15.5599C4.95801 15.3349 5.14026 15.1519 5.36601 15.1519Z" fill="#8C8C8C" stroke="#8C8C8C" stroke-linecap="round" stroke-linejoin="round"/>
<path fill-rule="evenodd" clip-rule="evenodd" d="M13.826 15.1519C14.0517 15.1519 14.2347 15.3349 14.2347 15.5599C14.2347 15.7856 14.0517 15.9686 13.826 15.9686C13.6002 15.9686 13.418 15.7856 13.418 15.5599C13.418 15.3349 13.6002 15.1519 13.826 15.1519Z" fill="#8C8C8C" stroke="#8C8C8C" stroke-linecap="round" stroke-linejoin="round"/>
</svg>
