<svg width="25" height="25" viewBox="0 0 25 25" fill="none" xmlns="http://www.w3.org/2000/svg">
<path d="M16.4062 23.4375H8.59375C7.55775 23.4375 6.56418 23.0259 5.83161 22.2934C5.09905 21.5608 4.6875 20.5673 4.6875 19.5312V18.75C4.6875 16.8852 5.42829 15.0968 6.74691 13.7782C8.06552 12.4595 9.85395 11.7188 11.7188 11.7188H13.2812C15.1461 11.7188 16.9345 12.4595 18.2531 13.7782C19.5717 15.0968 20.3125 16.8852 20.3125 18.75V19.5312C20.3125 20.5673 19.9009 21.5608 19.1684 22.2934C18.4358 23.0259 17.4423 23.4375 16.4062 23.4375ZM11.7188 13.2812C10.2683 13.2812 8.87735 13.8574 7.85176 14.883C6.82617 15.9086 6.25 17.2996 6.25 18.75V19.5312C6.25 20.1529 6.49693 20.749 6.93647 21.1885C7.37601 21.6281 7.97215 21.875 8.59375 21.875H16.4062C17.0279 21.875 17.624 21.6281 18.0635 21.1885C18.5031 20.749 18.75 20.1529 18.75 19.5312V18.75C18.75 17.2996 18.1738 15.9086 17.1482 14.883C16.1227 13.8574 14.7317 13.2812 13.2812 13.2812H11.7188Z" fill="#1B1B1B"/>
<path d="M12.5 10.9375C11.5729 10.9375 10.6666 10.6626 9.89577 10.1475C9.12491 9.63245 8.5241 8.90036 8.16932 8.04383C7.81453 7.1873 7.7217 6.2448 7.90257 5.33552C8.08344 4.42623 8.52988 3.591 9.18544 2.93544C9.841 2.27988 10.6762 1.83344 11.5855 1.65257C12.4948 1.4717 13.4373 1.56453 14.2938 1.91932C15.1504 2.2741 15.8824 2.87491 16.3975 3.64577C16.9126 4.41662 17.1875 5.3229 17.1875 6.25C17.1875 7.4932 16.6936 8.68549 15.8146 9.56456C14.9355 10.4436 13.7432 10.9375 12.5 10.9375ZM12.5 3.125C11.8819 3.125 11.2777 3.30828 10.7638 3.65166C10.2499 3.99504 9.8494 4.4831 9.61288 5.05412C9.37635 5.62514 9.31447 6.25347 9.43505 6.85966C9.55563 7.46585 9.85325 8.02267 10.2903 8.45971C10.7273 8.89675 11.2842 9.19438 11.8903 9.31496C12.4965 9.43554 13.1249 9.37365 13.6959 9.13713C14.2669 8.9006 14.755 8.50006 15.0983 7.98616C15.4417 7.47226 15.625 6.86807 15.625 6.25C15.625 5.4212 15.2958 4.62634 14.7097 4.04029C14.1237 3.45424 13.3288 3.125 12.5 3.125Z" fill="#1B1B1B"/>
</svg>
