<svg width="32" height="32" viewBox="0 0 32 32" fill="none" xmlns="http://www.w3.org/2000/svg">
<path d="M23.6127 3.72086C22.814 3.45286 21.974 3.3342 21.1327 3.3342C19.2794 3.32086 17.4807 3.9342 15.9994 5.0662C15.8794 4.9742 15.7327 4.89286 15.5994 4.8142C15.466 4.73286 15.226 4.5342 15.026 4.42753L14.5194 4.20086C14.2527 4.0542 13.974 3.94753 13.6794 3.85286C13.6527 3.82753 13.6127 3.79953 13.5594 3.7742H13.4807C12.6927 3.5062 11.8794 3.35953 11.0394 3.3342H10.8927C10.5194 3.3342 10.1474 3.35953 9.7727 3.4142H9.6127C9.2127 3.4662 8.81404 3.55953 8.42737 3.69286C3.4527 5.32086 1.67937 10.7209 3.18604 15.4409C4.03937 17.8529 5.41404 20.0409 7.2007 21.8395C9.79937 24.3462 12.6407 26.5595 15.6927 28.4529L16.0394 28.6675L16.3727 28.4662C19.414 26.5595 22.2394 24.3462 24.814 21.8529C26.6127 20.0542 27.986 17.8529 28.826 15.4409C30.3074 10.7209 28.534 5.32086 23.6127 3.72086V3.72086Z" fill="#54BAB9"/>
</svg>
